<svg width="1280" height="640" viewBox="0 0 1280 640" xmlns="http://www.w3.org/2000/svg">
  <defs>
    <linearGradient id="bg" x1="0%" y1="0%" x2="100%" y2="100%">
      <stop offset="0%" style="stop-color:#0a0a1a"/>
      <stop offset="100%" style="stop-color:#0d1a0d"/>
    </linearGradient>
    <clipPath id="p1"><rect x="80" y="80" width="200" height="400" rx="28"/></clipPath>
    <clipPath id="p2"><rect x="320" y="60" width="200" height="420" rx="28"/></clipPath>
    <clipPath id="p3"><rect x="560" y="80" width="200" height="400" rx="28"/></clipPath>
  </defs>

  <!-- Background -->
  <rect width="1280" height="640" fill="url(#bg)"/>
  
  <!-- Subtle grid lines -->
  <line x1="0" y1="160" x2="1280" y2="160" stroke="#ffffff" stroke-width="0.3" opacity="0.05"/>
  <line x1="0" y1="320" x2="1280" y2="320" stroke="#ffffff" stroke-width="0.3" opacity="0.05"/>
  <line x1="0" y1="480" x2="1280" y2="480" stroke="#ffffff" stroke-width="0.3" opacity="0.05"/>
  <line x1="320" y1="0" x2="320" y2="640" stroke="#ffffff" stroke-width="0.3" opacity="0.05"/>
  <line x1="640" y1="0" x2="640" y2="640" stroke="#ffffff" stroke-width="0.3" opacity="0.05"/>
  <line x1="960" y1="0" x2="960" y2="640" stroke="#ffffff" stroke-width="0.3" opacity="0.05"/>

  <!-- PHONE 1 - Home -->
  <rect x="80" y="80" width="200" height="400" rx="28" fill="#1a1a2e" stroke="#333" stroke-width="2"/>
  <rect x="148" y="82" width="64" height="14" rx="7" fill="#111"/>
  <rect x="80" y="106" width="200" height="54" fill="#0F6E56"/>
  <text x="180" y="130" font-size="14" fill="white" text-anchor="middle" font-family="Arial" font-weight="600">StepTracker</text>
  <text x="180" y="148" font-size="10" fill="#9FE1CB" text-anchor="middle" font-family="Arial">Sunday, Apr 20</text>
  <circle cx="180" cy="240" r="70" fill="none" stroke="#1D9E75" stroke-width="6" stroke-dasharray="330 110" stroke-linecap="round"/>
  <circle cx="180" cy="240" r="70" fill="none" stroke="#1a3a2a" stroke-width="6"/>
  <circle cx="180" cy="240" r="70" fill="none" stroke="#1D9E75" stroke-width="6" stroke-dasharray="280 440" stroke-linecap="round"/>
  <text x="180" y="232" font-size="28" fill="white" text-anchor="middle" font-family="Arial" font-weight="700">7,842</text>
  <text x="180" y="252" font-size="11" fill="#9FE1CB" text-anchor="middle" font-family="Arial">steps today</text>
  <text x="180" y="268" font-size="10" fill="#888" text-anchor="middle" font-family="Arial">Goal: 10,000</text>
  <rect x="96" y="326" width="54" height="48" rx="8" fill="#0d2d1f"/>
  <text x="123" y="346" font-size="9" fill="#9FE1CB" text-anchor="middle" font-family="Arial">Distance</text>
  <text x="123" y="362" font-size="13" fill="white" text-anchor="middle" font-family="Arial" font-weight="600">5.4km</text>
  <rect x="157" y="326" width="54" height="48" rx="8" fill="#0d2d1f"/>
  <text x="184" y="346" font-size="9" fill="#9FE1CB" text-anchor="middle" font-family="Arial">Calories</text>
  <text x="184" y="362" font-size="13" fill="white" text-anchor="middle" font-family="Arial" font-weight="600">312</text>
  <rect x="218" y="326" width="54" height="48" rx="8" fill="#0d2d1f"/>
  <text x="245" y="346" font-size="9" fill="#9FE1CB" text-anchor="middle" font-family="Arial">Active</text>
  <text x="245" y="362" font-size="13" fill="white" text-anchor="middle" font-family="Arial" font-weight="600">1h 2m</text>
  <rect x="80" y="428" width="200" height="52" fill="#111"/>
  <text x="130" y="458" font-size="11" fill="#1D9E75" text-anchor="middle" font-family="Arial">Home</text>
  <text x="180" y="458" font-size="11" fill="#555" text-anchor="middle" font-family="Arial">Stats</text>
  <text x="230" y="458" font-size="11" fill="#555" text-anchor="middle" font-family="Arial">History</text>

  <!-- PHONE 2 - Stats (center, bigger) -->
  <rect x="320" y="60" width="200" height="420" rx="28" fill="#1a1a2e" stroke="#7F77DD" stroke-width="2"/>
  <rect x="388" y="62" width="64" height="14" rx="7" fill="#111"/>
  <rect x="320" y="86" width="200" height="54" fill="#3C3489"/>
  <text x="420" y="110" font-size="14" fill="white" text-anchor="middle" font-family="Arial" font-weight="600">Weekly Stats</text>
  <text x="420" y="128" font-size="10" fill="#CECBF6" text-anchor="middle" font-family="Arial">Apr 14 — Apr 20</text>
  <text x="336" y="162" font-size="10" fill="#aaa" font-family="Arial">Steps this week</text>
  <!-- bars -->
  <rect x="336" y="234" width="20" height="80" rx="4" fill="#534AB7" opacity="0.5"/>
  <rect x="364" y="208" width="20" height="106" rx="4" fill="#534AB7" opacity="0.65"/>
  <rect x="392" y="220" width="20" height="94" rx="4" fill="#534AB7" opacity="0.75"/>
  <rect x="420" y="180" width="20" height="134" rx="4" fill="#7F77DD"/>
  <rect x="448" y="212" width="20" height="102" rx="4" fill="#534AB7" opacity="0.8"/>
  <rect x="476" y="228" width="20" height="86" rx="4" fill="#534AB7" opacity="0.6"/>
  <rect x="504" y="196" width="20" height="118" rx="4" fill="#7F77DD"/>
  <line x1="336" y1="228" x2="524" y2="228" stroke="#7F77DD" stroke-width="1" stroke-dasharray="4 3"/>
  <text x="336" y="334" font-size="9" fill="#888" font-family="Arial">M</text>
  <text x="368" y="334" font-size="9" fill="#888" font-family="Arial">T</text>
  <text x="397" y="334" font-size="9" fill="#888" font-family="Arial">W</text>
  <text x="426" y="334" font-size="9" fill="#888" font-family="Arial">T</text>
  <text x="456" y="334" font-size="9" fill="#888" font-family="Arial">F</text>
  <text x="484" y="334" font-size="9" fill="#888" font-family="Arial">S</text>
  <text x="508" y="334" font-size="9" fill="#7F77DD" font-family="Arial">S</text>
  <rect x="336" y="348" width="84" height="42" rx="8" fill="#1e1b4b"/>
  <text x="378" y="364" font-size="10" fill="#CECBF6" text-anchor="middle" font-family="Arial">Avg / day</text>
  <text x="378" y="382" font-size="16" fill="white" text-anchor="middle" font-family="Arial" font-weight="700">8,241</text>
  <rect x="430" y="348" width="84" height="42" rx="8" fill="#1e1b4b"/>
  <text x="472" y="364" font-size="10" fill="#CECBF6" text-anchor="middle" font-family="Arial">Total</text>
  <text x="472" y="382" font-size="16" fill="white" text-anchor="middle" font-family="Arial" font-weight="700">57,687</text>
  <rect x="320" y="432" width="200" height="48" fill="#111"/>
  <text x="365" y="460" font-size="11" fill="#555" text-anchor="middle" font-family="Arial">Home</text>
  <text x="420" y="460" font-size="11" fill="#7F77DD" text-anchor="middle" font-family="Arial">Stats</text>
  <text x="475" y="460" font-size="11" fill="#555" text-anchor="middle" font-family="Arial">History</text>

  <!-- PHONE 3 - History -->
  <rect x="560" y="80" width="200" height="400" rx="28" fill="#1a1a2e" stroke="#333" stroke-width="2"/>
  <rect x="628" y="82" width="64" height="14" rx="7" fill="#111"/>
  <rect x="560" y="106" width="200" height="54" fill="#993C1D"/>
  <text x="660" y="130" font-size="14" fill="white" text-anchor="middle" font-family="Arial" font-weight="600">History</text>
  <text x="660" y="148" font-size="10" fill="#F5C4B3" text-anchor="middle" font-family="Arial">April 2026</text>
  <!-- history rows -->
  <rect x="576" y="172" width="168" height="40" rx="8" fill="#1e1212"/>
  <circle cx="596" cy="192" r="12" fill="#993C1D"/><text x="596" y="196" font-size="9" fill="white" text-anchor="middle" font-family="Arial">20</text>
  <text x="616" y="186" font-size="9" fill="#aaa" font-family="Arial">Today</text>
  <text x="616" y="200" font-size="12" fill="white" font-family="Arial" font-weight="600">7,842 steps</text>
  <text x="734" y="194" font-size="10" fill="#D85A30" text-anchor="end" font-family="Arial">78%</text>
  <rect x="576" y="220" width="168" height="40" rx="8" fill="#1e1212"/>
  <circle cx="596" cy="240" r="12" fill="#639922"/><text x="596" y="244" font-size="9" fill="white" text-anchor="middle" font-family="Arial">19</text>
  <text x="616" y="234" font-size="9" fill="#aaa" font-family="Arial">Yesterday</text>
  <text x="616" y="248" font-size="12" fill="white" font-family="Arial" font-weight="600">11,204 steps</text>
  <text x="734" y="242" font-size="10" fill="#639922" text-anchor="end" font-family="Arial">112%</text>
  <rect x="576" y="268" width="168" height="40" rx="8" fill="#1e1212"/>
  <circle cx="596" cy="288" r="12" fill="#639922"/><text x="596" y="292" font-size="9" fill="white" text-anchor="middle" font-family="Arial">18</text>
  <text x="616" y="282" font-size="9" fill="#aaa" font-family="Arial">Friday</text>
  <text x="616" y="296" font-size="12" fill="white" font-family="Arial" font-weight="600">9,553 steps</text>
  <text x="734" y="290" font-size="10" fill="#639922" text-anchor="end" font-family="Arial">95%</text>
  <rect x="576" y="316" width="168" height="40" rx="8" fill="#1e1212"/>
  <circle cx="596" cy="336" r="12" fill="#993C1D"/><text x="596" y="340" font-size="9" fill="white" text-anchor="middle" font-family="Arial">17</text>
  <text x="616" y="330" font-size="9" fill="#aaa" font-family="Arial">Thursday</text>
  <text x="616" y="344" font-size="12" fill="white" font-family="Arial" font-weight="600">6,120 steps</text>
  <text x="734" y="338" font-size="10" fill="#D85A30" text-anchor="end" font-family="Arial">61%</text>
  <rect x="576" y="364" width="168" height="40" rx="8" fill="#1e1212"/>
  <circle cx="596" cy="384" r="12" fill="#639922"/><text x="596" y="388" font-size="9" fill="white" text-anchor="middle" font-family="Arial">16</text>
  <text x="616" y="378" font-size="9" fill="#aaa" font-family="Arial">Wednesday</text>
  <text x="616" y="392" font-size="12" fill="white" font-family="Arial" font-weight="600">10,891 steps</text>
  <text x="734" y="386" font-size="10" fill="#639922" text-anchor="end" font-family="Arial">108%</text>
  <rect x="560" y="428" width="200" height="52" fill="#111"/>
  <text x="605" y="458" font-size="11" fill="#555" text-anchor="middle" font-family="Arial">Home</text>
  <text x="660" y="458" font-size="11" fill="#555" text-anchor="middle" font-family="Arial">Stats</text>
  <text x="715" y="458" font-size="11" fill="#D85A30" text-anchor="middle" font-family="Arial">History</text>

  <!-- RIGHT SIDE TEXT -->
  <text x="870" y="140" font-size="52" fill="white" font-family="Arial" font-weight="700">👣</text>
  <text x="870" y="210" font-size="48" fill="white" font-family="Arial" font-weight="800">StepTracker</text>
  <text x="870" y="248" font-size="16" fill="#9FE1CB" font-family="Arial">Production-grade Android fitness app</text>
  <line x1="870" y1="268" x2="1200" y2="268" stroke="#1D9E75" stroke-width="2"/>

  <!-- tech badges -->
  <rect x="870" y="284" width="130" height="26" rx="13" fill="#0F6E56"/>
  <text x="935" y="301" font-size="11" fill="#E1F5EE" text-anchor="middle" font-family="Arial" font-weight="500">Jetpack Compose</text>
  <rect x="1012" y="284" width="90" height="26" rx="13" fill="#3C3489"/>
  <text x="1057" y="301" font-size="11" fill="#EEEDFE" text-anchor="middle" font-family="Arial" font-weight="500">Kotlin 2.0</text>
  <rect x="1114" y="284" width="80" height="26" rx="13" fill="#185FA5"/>
  <text x="1154" y="301" font-size="11" fill="#E6F1FB" text-anchor="middle" font-family="Arial" font-weight="500">Hilt DI</text>

  <rect x="870" y="320" width="70" height="26" rx="13" fill="#63380A"/>
  <text x="905" y="337" font-size="11" fill="#FAC775" text-anchor="middle" font-family="Arial" font-weight="500">Room DB</text>
  <rect x="952" y="320" width="100" height="26" rx="13" fill="#4A1B0C"/>
  <text x="1002" y="337" font-size="11" fill="#F5C4B3" text-anchor="middle" font-family="Arial" font-weight="500">Coroutines</text>
  <rect x="1064" y="320" width="80" height="26" rx="13" fill="#4B1528"/>
  <text x="1104" y="337" font-size="11" fill="#F4C0D1" text-anchor="middle" font-family="Arial" font-weight="500">Clean Arch</text>
  <rect x="1156" y="320" width="50" height="26" rx="13" fill="#27500A"/>
  <text x="1181" y="337" font-size="11" fill="#C0DD97" text-anchor="middle" font-family="Arial" font-weight="500">MVVM</text>

  <!-- features -->
  <text x="870" y="385" font-size="14" fill="#9FE1CB" font-family="Arial">✓  Real-time step tracking with device sensor</text>
  <text x="870" y="410" font-size="14" fill="#CECBF6" font-family="Arial">✓  Beautiful weekly analytics charts (Vico)</text>
  <text x="870" y="435" font-size="14" fill="#F5C4B3" font-family="Arial">✓  Offline-first with Room database</text>
  <text x="870" y="460" font-size="14" fill="#B5D4F4" font-family="Arial">✓  Material You · Dark/Light theme</text>
  <text x="870" y="485" font-size="14" fill="#C0DD97" font-family="Arial">✓  Daily goals &amp; history tracking</text>

  <!-- bottom -->
  <text x="870" y="540" font-size="13" fill="#555" font-family="Arial">github.com/YOUR_USERNAME/StepTrackerApp</text>
  <text x="870" y="565" font-size="12" fill="#333" font-family="Arial">Built with love in Bengaluru, India 🇮🇳 · MIT License</text>
</svg>
